# xmcd
#
# Track frame offsets:
# 150
# 29534
# 56109
# 73346
# 93596
# 113725
# 136375
# 151792
# 178524
# 209792
# 235844
# 255204
# 281508
# 301064
# 320729
# 338513
#
# Disc length: 4784 seconds
#
#
# Revision: 0
# Processed by: cddbd v1.5.2PL0 Copyright (c) Steve Scherf et al.
# Submitted via: FreeRIP 2.96 
#
DISCID=e512ae10
DTITLE=Karlheinz Koinegg - König Artus CD3v3
DYEAR=2005
DGENRE=Hörspiel
TTITLE0=25 Lancelot und Guniver 1
TTITLE1=26 Lancelot und Guniver 2
TTITLE2=27 Lancelot und Guniver 3
TTITLE3=28 Lancelot und Guniver 4
TTITLE4=29 Lancelot und Guniver 5
TTITLE5=30 Lancelot und Guniver 6
TTITLE6=31 Lancelot und Guniver 7
TTITLE7=32 Die drei Grashalme des Koenigs 1
TTITLE8=33 Die drei Grashalme des Koenigs 2
TTITLE9=34 Die drei Grashalme des Koenigs 3
TTITLE10=35 Die drei Grashalme des Koenigs 4
TTITLE11=36 Die drei Grashalme des Koenigs 5
TTITLE12=37 Die drei Grashalme des Koenigs 6
TTITLE13=38 Die drei Grashalme des Koenigs 7
TTITLE14=39 Die drei Grashalme des Koenigs 8
TTITLE15=40 Die drei Grashalme des Koenigs 9
EXTD=
EXTT0=
EXTT1=
EXTT2=
EXTT3=
EXTT4=
EXTT5=
EXTT6=
EXTT7=
EXTT8=
EXTT9=
EXTT10=
EXTT11=
EXTT12=
EXTT13=
EXTT14=
EXTT15=
PLAYORDER=
